<svg width="22" height="24" viewBox="0 0 22 24" fill="none" xmlns="http://www.w3.org/2000/svg">
<path d="M8.65082 9.44949V8.51263C8.33278 8.46872 8.00963 8.44116 7.67965 8.44116C3.70629 8.44116 0.473877 11.7055 0.473877 15.7181C0.473877 18.18 1.69232 20.3585 3.55025 21.676C2.35057 20.3757 1.61473 18.6338 1.61473 16.7213C1.61473 12.7664 4.7559 9.54076 8.65082 9.44862V9.44949Z" fill="#25F4EE"/>
<path d="M8.82051 20.0459C10.5932 20.0459 12.0393 18.6217 12.1049 16.8479L12.1109 1.00316H14.9775C14.9178 0.67767 14.8854 0.34271 14.8854 0H10.9701L10.9641 15.8447C10.8984 17.6194 9.45233 19.0428 7.67966 19.0428C7.12885 19.0428 6.60958 18.9033 6.15341 18.6613C6.75197 19.4983 7.72315 20.0468 8.82137 20.0468L8.82051 20.0459Z" fill="#25F4EE"/>
<path d="M20.3322 6.38062V5.49973C19.2391 5.49973 18.2201 5.17166 17.3658 4.60938C18.1264 5.49112 19.1598 6.12746 20.3322 6.38062Z" fill="#25F4EE"/>
<path d="M17.3658 4.60849C16.5328 3.64236 16.0263 2.38088 16.0263 1.00229H14.9775C15.2538 2.50832 16.1389 3.8008 17.3658 4.60849Z" fill="#FE2C55"/>
<path d="M7.67964 12.3953C5.86519 12.3953 4.3884 13.8858 4.3884 15.719C4.3884 16.9951 5.10548 18.1042 6.15254 18.6605C5.76202 18.1145 5.52925 17.4455 5.52925 16.7222C5.52925 14.8898 7.00604 13.3984 8.82049 13.3984C9.15899 13.3984 9.48385 13.4552 9.79166 13.5517V9.51581C9.47362 9.47189 9.15047 9.44434 8.82049 9.44434C8.76336 9.44434 8.70709 9.44778 8.64996 9.44864V12.5485C8.343 12.4512 8.01729 12.3953 7.67879 12.3953H7.67964Z" fill="#FE2C55"/>
<path d="M20.3322 6.38062V9.45381C18.302 9.45381 16.4211 8.79766 14.8854 7.68515V15.7199C14.8854 19.7325 11.653 22.9969 7.67966 22.9969C6.14403 22.9969 4.7201 22.5078 3.55026 21.6777C4.86676 23.1045 6.74175 24 8.82137 24C12.7947 24 16.0271 20.7357 16.0271 16.723V8.68831C17.5628 9.80168 19.4437 10.457 21.4739 10.457V6.50289C21.0825 6.50289 20.7005 6.45983 20.333 6.38062H20.3322Z" fill="#FE2C55"/>
<path d="M14.8854 15.719V7.68426C16.4211 8.79764 18.302 9.45292 20.3322 9.45292V6.37973C19.1598 6.12657 18.1264 5.49023 17.3658 4.60849C16.1388 3.8008 15.2538 2.50832 14.9775 1.00229H12.1109L12.1049 16.847C12.0393 18.6217 10.5932 20.0451 8.82052 20.0451C7.7223 20.0451 6.75113 19.4974 6.15257 18.6596C5.10466 18.1025 4.38843 16.9943 4.38843 15.7181C4.38843 13.8858 5.86522 12.3944 7.67967 12.3944C8.01817 12.3944 8.34303 12.4512 8.65084 12.5476V9.44775C4.75592 9.53989 1.61475 12.7655 1.61475 16.7204C1.61475 18.6337 2.35059 20.3748 3.55027 21.6751C4.72096 22.5052 6.14404 22.9943 7.67967 22.9943C11.653 22.9943 14.8854 19.7299 14.8854 15.7173V15.719Z" fill="black"/>
</svg>
