<svg width="24" height="24" viewBox="0 0 24 24" fill="none" xmlns="http://www.w3.org/2000/svg">
<path d="M18.7193 24H5.11076C2.29201 24 0 21.759 0 19.0063V4.99371C0 2.23914 2.29201 0 5.11076 0H18.7193C21.5381 0 23.8301 2.24103 23.8301 4.99371V19.0063C23.8301 21.7609 21.5381 24 18.7193 24ZM5.11076 2.05601C3.42668 2.05601 2.05601 3.37382 2.05601 4.99371V19.0063C2.05601 20.6262 3.42668 21.944 5.11076 21.944H18.7193C20.4034 21.944 21.7722 20.6262 21.7722 19.0063V4.99371C21.7722 3.37382 20.4015 2.05601 18.7193 2.05601H5.11076V2.05601Z" fill="url(#paint0_linear_333_2800)"/>
<path d="M11.915 18.2285C8.48079 18.2285 5.68658 15.4343 5.68658 11.9982C5.68658 8.56203 8.48079 5.76782 11.915 5.76782C15.3493 5.76782 18.1454 8.56203 18.1454 11.9982C18.1454 15.4343 15.3512 18.2285 11.915 18.2285ZM11.915 7.82761C9.61358 7.82761 7.74259 9.6986 7.74259 12C7.74259 14.3015 9.61358 16.1725 11.915 16.1725C14.2165 16.1725 16.0875 14.3015 16.0875 12C16.0875 9.6986 14.2165 7.82761 11.915 7.82761Z" fill="url(#paint1_linear_333_2800)"/>
<path d="M20.0579 5.4563C20.0579 6.26058 19.4065 6.91382 18.6003 6.91382C17.7942 6.91382 17.1428 6.26058 17.1428 5.4563C17.1428 4.65202 17.7942 3.99878 18.6003 3.99878C19.4065 3.99878 20.0579 4.65202 20.0579 5.4563Z" fill="url(#paint2_linear_333_2800)"/>
<defs>
<linearGradient id="paint0_linear_333_2800" x1="1" y1="23" x2="23.5" y2="3.5" gradientUnits="userSpaceOnUse">
<stop stop-color="#B236ED"/>
<stop offset="0.494792" stop-color="#F71F1F"/>
<stop offset="1" stop-color="#FF9B3F"/>
</linearGradient>
<linearGradient id="paint1_linear_333_2800" x1="6.2094" y1="17.7093" x2="17.9026" y2="7.50452" gradientUnits="userSpaceOnUse">
<stop stop-color="#B236ED"/>
<stop offset="0.494792" stop-color="#F71F1F"/>
<stop offset="1" stop-color="#FF9B3F"/>
</linearGradient>
<linearGradient id="paint2_linear_333_2800" x1="17.2651" y1="6.79236" x2="20.0007" y2="4.40465" gradientUnits="userSpaceOnUse">
<stop stop-color="#B236ED"/>
<stop offset="0.494792" stop-color="#F71F1F"/>
<stop offset="1" stop-color="#FF9B3F"/>
</linearGradient>
</defs>
</svg>
