<svg width="62" height="52" viewBox="0 0 62 52" fill="none" xmlns="http://www.w3.org/2000/svg">
<path d="M3.86831 23.5451L23.5439 3.86947C24.8998 2.51356 27.0982 2.51356 28.4541 3.86947L48.1297 23.5451C49.4856 24.901 49.4856 27.0993 48.1297 28.4553L28.4541 48.1309C27.0982 49.4868 24.8998 49.4868 23.5439 48.1309L3.86831 28.4553C2.5124 27.0993 2.5124 24.901 3.86831 23.5451Z" fill="white" stroke="black" stroke-width="2"/>
<path d="M27.2041 28.6428H22.2917V25.6309H27.2041C27.9289 25.6309 28.5105 25.5237 28.949 25.3094C29.3964 25.0952 29.723 24.8015 29.9288 24.4285C30.1435 24.0475 30.2509 23.619 30.2509 23.1428C30.2509 22.6507 30.1435 22.1944 29.9288 21.7737C29.723 21.3452 29.3964 20.9999 28.949 20.738C28.5105 20.4761 27.9289 20.3452 27.2041 20.3452H23.8755V34.6666H19.5V17.3333H27.2041C28.7611 17.3333 30.0943 17.5833 31.2038 18.0833C32.3223 18.5833 33.1768 19.2698 33.7674 20.1428C34.3669 21.0079 34.6667 21.9999 34.6667 23.119C34.6667 24.238 34.3669 25.2102 33.7674 26.0356C33.1768 26.861 32.3223 27.5039 31.2038 27.9642C30.0943 28.4166 28.7611 28.6428 27.2041 28.6428Z" fill="black"/>
<path d="M13.8683 23.5451L33.5439 3.86947C34.8998 2.51356 37.0982 2.51356 38.4541 3.86947L58.1297 23.5451C59.4856 24.901 59.4856 27.0993 58.1297 28.4553L38.4541 48.1309C37.0982 49.4868 34.8998 49.4868 33.5439 48.1309L13.8683 28.4553C12.5124 27.0993 12.5124 24.901 13.8683 23.5451Z" fill="white" stroke="black" stroke-width="2"/>
<path d="M37.2041 28.6428H32.2917V25.6309H37.2041C37.9289 25.6309 38.5105 25.5237 38.949 25.3094C39.3964 25.0952 39.723 24.8015 39.9288 24.4285C40.1435 24.0475 40.2509 23.619 40.2509 23.1428C40.2509 22.6507 40.1435 22.1944 39.9288 21.7737C39.723 21.3452 39.3964 20.9999 38.949 20.738C38.5105 20.4761 37.9289 20.3452 37.2041 20.3452H33.8755V34.6666H29.5V17.3333H37.2041C38.7611 17.3333 40.0943 17.5833 41.2038 18.0833C42.3223 18.5833 43.1768 19.2698 43.7674 20.1428C44.3669 21.0079 44.6667 21.9999 44.6667 23.119C44.6667 24.238 44.3669 25.2102 43.7674 26.0356C43.1768 26.861 42.3223 27.5039 41.2038 27.9642C40.0943 28.4166 38.7611 28.6428 37.2041 28.6428Z" fill="black"/>
</svg>
