<svg width="61" height="52" viewBox="0 0 61 52" fill="none" xmlns="http://www.w3.org/2000/svg">
<path d="M16 31.5C16 29.567 14.433 28 12.5 28C10.567 28 9 29.567 9 31.5V48.5C9 50.433 10.567 52 12.5 52C14.433 52 16 50.433 16 48.5V31.5Z" fill="white"/>
<path d="M15 31.5C15 30.1193 13.8807 29 12.5 29C11.1193 29 10 30.1193 10 31.5V48.5C10 49.8807 11.1193 51 12.5 51C13.8807 51 15 49.8807 15 48.5V31.5Z" stroke="black" stroke-width="2"/>
<path d="M51 31.5C51 29.567 49.433 28 47.5 28C45.567 28 44 29.567 44 31.5V48.5C44 50.433 45.567 52 47.5 52C49.433 52 51 50.433 51 48.5V31.5Z" fill="white"/>
<path d="M50 31.5C50 30.1193 48.8807 29 47.5 29C46.1193 29 45 30.1193 45 31.5V48.5C45 49.8807 46.1193 51 47.5 51C48.8807 51 50 49.8807 50 48.5V31.5Z" stroke="black" stroke-width="2"/>
<path d="M13 37C20.1797 37 26 30.9558 26 23.5C26 16.0442 20.1797 10 13 10C5.8203 10 0 16.0442 0 23.5C0 30.9558 5.8203 37 13 37Z" fill="white"/>
<path d="M13 36C19.6274 36 25 30.4036 25 23.5C25 16.5964 19.6274 11 13 11C6.37258 11 1 16.5964 1 23.5C1 30.4036 6.37258 36 13 36Z" stroke="black" stroke-width="2"/>
<path d="M48 37C55.1797 37 61 30.9558 61 23.5C61 16.0442 55.1797 10 48 10C40.8203 10 35 16.0442 35 23.5C35 30.9558 40.8203 37 48 37Z" fill="white"/>
<path d="M48 36C54.6274 36 60 30.4036 60 23.5C60 16.5964 54.6274 11 48 11C41.3726 11 36 16.5964 36 23.5C36 30.4036 41.3726 36 48 36Z" stroke="black" stroke-width="2"/>
<path d="M33.9999 26C33.9999 23.7909 32.2091 22 29.9999 22C27.7908 22 25.9999 23.7909 25.9999 26V47C25.9999 49.2091 27.7908 51 29.9999 51C32.2091 51 33.9999 49.2091 33.9999 47V26Z" fill="white"/>
<path d="M32.9999 26C32.9999 24.3431 31.6568 23 29.9999 23C28.3431 23 26.9999 24.3431 26.9999 26V47C26.9999 48.6569 28.3431 50 29.9999 50C31.6568 50 32.9999 48.6569 32.9999 47V26Z" stroke="black" stroke-width="2"/>
<path d="M30.4999 35C40.1649 35 47.9999 27.165 47.9999 17.5C47.9999 7.83502 40.1649 0 30.4999 0C20.835 0 12.9999 7.83502 12.9999 17.5C12.9999 27.165 20.835 35 30.4999 35Z" fill="white"/>
<path d="M30.4999 34C39.6126 34 46.9999 26.6127 46.9999 17.5C46.9999 8.3873 39.6126 1 30.4999 1C21.3872 1 13.9999 8.3873 13.9999 17.5C13.9999 26.6127 21.3872 34 30.4999 34Z" stroke="black" stroke-width="2"/>
<path d="M31.0557 8.15527V10.7832H29.7021V8.15527H31.0557ZM30.8887 22.5078V24.8633H29.5439V22.5078H30.8887ZM32.2158 19.6689C32.2158 19.3291 32.1455 19.0332 32.0049 18.7812C31.8701 18.5234 31.6475 18.292 31.3369 18.0869C31.0264 17.876 30.6104 17.6797 30.0889 17.498C29.3389 17.2344 28.6826 16.9385 28.1201 16.6104C27.5635 16.2764 27.1299 15.8662 26.8193 15.3799C26.5146 14.8877 26.3623 14.2754 26.3623 13.543C26.3623 12.8223 26.5264 12.1982 26.8545 11.6709C27.1885 11.1436 27.6514 10.7363 28.2432 10.4492C28.835 10.1621 29.5264 10.0186 30.3174 10.0186C30.9268 10.0186 31.4746 10.1094 31.9609 10.291C32.4531 10.4727 32.8721 10.7393 33.2178 11.0908C33.5635 11.4424 33.8271 11.876 34.0088 12.3916C34.1963 12.9014 34.29 13.4873 34.29 14.1494H32.1807C32.1807 13.7744 32.1367 13.4404 32.0488 13.1475C31.9668 12.8486 31.8438 12.5967 31.6797 12.3916C31.5156 12.1807 31.3164 12.0195 31.082 11.9082C30.8535 11.7969 30.5928 11.7412 30.2998 11.7412C29.8838 11.7412 29.541 11.8203 29.2715 11.9785C29.002 12.1309 28.8027 12.3418 28.6738 12.6113C28.5508 12.8809 28.4893 13.1885 28.4893 13.5342C28.4893 13.8682 28.5537 14.1611 28.6826 14.4131C28.8115 14.665 29.0312 14.8936 29.3418 15.0986C29.6582 15.2979 30.0918 15.5 30.6426 15.7051C31.3984 15.9746 32.0518 16.2764 32.6025 16.6104C33.1592 16.9385 33.5869 17.3457 33.8857 17.832C34.1904 18.3125 34.3428 18.9189 34.3428 19.6514C34.3428 20.4072 34.167 21.0488 33.8154 21.5762C33.4697 22.1035 32.9834 22.5049 32.3564 22.7803C31.7354 23.0498 31.0117 23.1846 30.1855 23.1846C29.6641 23.1846 29.1455 23.1172 28.6299 22.9824C28.1201 22.8418 27.6572 22.6133 27.2412 22.2969C26.8252 21.9805 26.4941 21.5615 26.248 21.04C26.002 20.5127 25.8789 19.8682 25.8789 19.1064H28.0059C28.0059 19.5635 28.0674 19.9443 28.1904 20.249C28.3135 20.5537 28.4805 20.7939 28.6914 20.9697C28.9023 21.1455 29.1367 21.2715 29.3945 21.3477C29.6582 21.4238 29.9219 21.4619 30.1855 21.4619C30.625 21.4619 30.9941 21.3887 31.293 21.2422C31.5977 21.0898 31.8262 20.8789 31.9785 20.6094C32.1367 20.334 32.2158 20.0205 32.2158 19.6689Z" fill="black"/>
</svg>
