<svg width="140" height="21" viewBox="0 0 140 21" fill="none" xmlns="http://www.w3.org/2000/svg">
<g clip-path="url(#clip0_775_16117)">
<path d="M20.5331 0H0V21H20.5331V0Z" fill="#999999"/>
<path d="M6.78707 6.45703H4.26245L6.78707 14.5273H8.99468L6.78707 6.45703Z" fill="#181818"/>
<path d="M11.3627 6.45703H9.15892L11.5193 14.5273H13.7307L11.3627 6.45703Z" fill="#181818"/>
<path d="M13.7307 6.45703L14.8575 10.9258L16.2554 6.45703H13.7307Z" fill="#181818"/>
<path d="M111.607 17.6445L110.167 12.7266L108.727 17.6445H105.82L102.646 7.5H106.026L107.317 12.4062L108.712 7.5H111.622L113.016 12.4062L114.307 7.5H117.687L114.513 17.6445H111.607Z" fill="#999999"/>
<path d="M117.5 7.63672L114.414 17.5039H111.714L110.171 12.2344L108.627 17.5039H105.927L102.841 7.63672H105.927L107.317 12.9258L108.822 7.63672H111.523L113.027 12.9258L114.418 7.63672H117.504H117.5Z" fill="#999999"/>
<path d="M119.318 17.6445V7.5H122.488V17.6484H119.318V17.6445ZM120.903 6.91016C119.887 6.91016 119.028 6.03125 119.028 4.99219C119.028 3.95312 119.887 3.07422 120.903 3.07422C121.919 3.07422 122.778 3.95312 122.778 4.99219C122.778 6.03125 121.919 6.91016 120.903 6.91016Z" fill="#999999"/>
<path d="M119.165 4.99219C119.165 4.02344 119.956 3.21484 120.903 3.21484C121.85 3.21484 122.641 4.02344 122.641 4.99219C122.641 5.96094 121.85 6.76953 120.903 6.76953C119.956 6.76953 119.165 5.96094 119.165 4.99219ZM119.455 7.63672H122.351V17.5039H119.455V7.63672Z" fill="#999999"/>
<path d="M131.257 17.6445V11.8789C131.257 10.8437 130.681 10.2227 129.714 10.2227C128.645 10.2227 128.057 10.8945 128.057 12.1172V17.6445H124.887V7.5H128.057V8.1875C128.656 7.57031 129.592 7.22266 130.677 7.22266C132.541 7.22266 134.424 8.53125 134.424 11.4492V17.6484H131.254L131.257 17.6445Z" fill="#999999"/>
<path d="M134.29 11.4492V17.5078H131.395V11.8828C131.395 10.6602 130.642 10.0859 129.714 10.0859C128.653 10.0859 127.919 10.7188 127.919 12.1172V17.5039H125.024V7.63672H127.919V8.5625C128.439 7.83203 129.405 7.35938 130.677 7.35938C132.625 7.35938 134.286 8.78125 134.286 11.4453L134.29 11.4492Z" fill="#999999"/>
<path d="M136.543 17.6445V7.5H139.714V17.6484H136.543V17.6445ZM138.129 6.91016C137.113 6.91016 136.253 6.03125 136.253 4.99219C136.253 3.95312 137.113 3.07422 138.129 3.07422C139.144 3.07422 140.004 3.95312 140.004 4.99219C140.004 6.03125 139.144 6.91016 138.129 6.91016Z" fill="#999999"/>
<path d="M136.391 4.99219C136.391 4.02344 137.181 3.21484 138.128 3.21484C139.076 3.21484 139.866 4.02344 139.866 4.99219C139.866 5.96094 139.076 6.76953 138.128 6.76953C137.181 6.76953 136.391 5.96094 136.391 4.99219ZM136.681 7.63672H139.576V17.5039H136.681V7.63672Z" fill="#999999"/>
<path d="M47.6928 17.9219C45.8289 17.9219 43.946 16.6172 43.946 13.6953V7.49609H47.1161V13.2617C47.1161 14.2969 47.6928 14.918 48.6591 14.918C49.7286 14.918 50.3167 14.2461 50.3167 13.0273V7.5H53.4868V17.6484H50.3167V16.9609C49.7171 17.5781 48.7852 17.9258 47.6966 17.9258L47.6928 17.9219Z" fill="#999999"/>
<path d="M53.3493 7.63672V17.5039H50.4542V16.5781C49.9348 17.3086 48.9685 17.7812 47.6966 17.7812C45.7487 17.7812 44.0873 16.3594 44.0873 13.6953V7.63672H46.9824V13.2617C46.9824 14.4844 47.7348 15.0586 48.6629 15.0586C49.7247 15.0586 50.4581 14.4258 50.4581 13.0273V7.64063H53.3532L53.3493 7.63672Z" fill="#999999"/>
<path d="M60.5871 17.9219C57.5927 17.9219 55.3354 15.6211 55.3354 12.5703C55.3354 9.51953 57.5927 7.21875 60.5871 7.21875C62.4739 7.21875 64.1926 8.21484 65.0672 9.81641L65.1322 9.9375L62.3593 11.582L62.2944 11.4453C61.9888 10.8047 61.3357 10.418 60.5451 10.418C59.342 10.418 58.5017 11.3008 58.5017 12.5664C58.5017 13.832 59.342 14.7148 60.5451 14.7148C61.3395 14.7148 62.0117 14.3242 62.2905 13.6914L62.3517 13.5508L65.1245 15.1758L65.0596 15.2969C64.1888 16.9102 62.4739 17.9141 60.5795 17.9141L60.5871 17.9219Z" fill="#999999"/>
<path d="M55.4729 12.5703C55.4729 9.62891 57.6538 7.35938 60.5871 7.35938C62.4586 7.35938 64.1162 8.36719 64.9489 9.88672L62.4204 11.3867C62.0919 10.6953 61.3968 10.2812 60.5489 10.2812C59.2961 10.2812 58.368 11.207 58.368 12.5703C58.368 13.9336 59.2923 14.8594 60.5489 14.8594C61.3968 14.8594 62.111 14.4453 62.4204 13.7539L64.9489 15.2344C64.12 16.7734 62.4777 17.7813 60.5871 17.7813C57.6538 17.7813 55.4729 15.5117 55.4729 12.5703Z" fill="#999999"/>
<path d="M70.6436 17.7227C69.2495 17.7227 68.3214 17.4219 67.7294 16.7812C67.1832 16.1875 66.9311 15.2969 66.9311 13.9766V5.66016L70.1012 4.6875V7.5H72.0873V10.6211H70.1012V13.9727C70.1012 14.5117 70.4182 14.7031 71.3043 14.7031C71.4991 14.7031 71.7092 14.6953 71.9422 14.6797L72.0873 14.6719V17.6328L71.9651 17.6445C71.4838 17.6953 71.0408 17.7187 70.6436 17.7187V17.7227Z" fill="#999999"/>
<path d="M69.9637 10.4805V13.9727C69.9637 14.8203 70.6779 14.8984 71.9498 14.8203V17.5039C68.1686 17.8984 67.0686 16.7344 67.0686 13.9727V5.76563L69.9637 4.87891V7.64062H71.9498V10.4805H69.9637Z" fill="#999999"/>
<path d="M74.4324 17.6445V7.5H77.6025V17.6484H74.4324V17.6445ZM76.0175 6.91016C75.0015 6.91016 74.1421 6.03125 74.1421 4.99219C74.1421 3.95312 75.0015 3.07422 76.0175 3.07422C77.0334 3.07422 77.8928 3.95312 77.8928 4.99219C77.8928 6.03125 77.0334 6.91016 76.0175 6.91016Z" fill="#999999"/>
<path d="M74.2796 4.99219C74.2796 4.02344 75.0702 3.21484 76.0175 3.21484C76.9647 3.21484 77.7553 4.02344 77.7553 4.99219C77.7553 5.96094 76.9647 6.76953 76.0175 6.76953C75.0702 6.76953 74.2796 5.96094 74.2796 4.99219ZM74.5699 7.63672H77.465V17.5039H74.5699V7.63672Z" fill="#999999"/>
<path d="M84.7601 17.9219C81.8153 17.9219 79.5084 15.5703 79.5084 12.5703C79.5084 9.57031 81.8153 7.21875 84.7601 7.21875C87.7048 7.21875 90.0117 9.57031 90.0117 12.5703C90.0117 15.5703 87.7048 17.9219 84.7601 17.9219ZM84.7601 10.3828C83.534 10.3828 82.6785 11.2813 82.6785 12.5703C82.6785 13.8594 83.534 14.7578 84.7601 14.7578C85.9861 14.7578 86.8416 13.8594 86.8416 12.5703C86.8416 11.2813 85.9861 10.3828 84.7601 10.3828Z" fill="#999999"/>
<path d="M79.6459 12.5703C79.6459 9.62891 81.9222 7.35938 84.7601 7.35938C87.5979 7.35938 89.8742 9.62891 89.8742 12.5703C89.8742 15.5117 87.5979 17.7813 84.7601 17.7813C81.9222 17.7813 79.6459 15.5117 79.6459 12.5703ZM86.9791 12.5703C86.9791 11.168 86.0166 10.2422 84.7601 10.2422C83.5035 10.2422 82.541 11.168 82.541 12.5703C82.541 13.9727 83.5073 14.8984 84.7601 14.8984C86.0128 14.8984 86.9791 13.9727 86.9791 12.5703Z" fill="#999999"/>
<path d="M98.1738 17.6445V11.8789C98.1738 10.8437 97.5971 10.2227 96.6307 10.2227C95.5613 10.2227 94.9731 10.8945 94.9731 12.1172V17.6445H91.803V7.5H94.9731V8.1875C95.5728 7.57031 96.5085 7.22266 97.5932 7.22266C99.4571 7.22266 101.34 8.53125 101.34 11.4492V17.6484H98.17L98.1738 17.6445Z" fill="#999999"/>
<path d="M101.206 11.4492V17.5078H98.3113V11.8828C98.3113 10.6602 97.5589 10.0859 96.6308 10.0859C95.569 10.0859 94.8356 10.7188 94.8356 12.1172V17.5039H91.9405V7.63672H94.8356V8.5625C95.3551 7.83203 96.3214 7.35938 97.5932 7.35938C99.5411 7.35938 101.203 8.78125 101.203 11.4453L101.206 11.4492Z" fill="#999999"/>
<path d="M39.187 17.6602L38.511 15.4844H34.5464L35.5586 12.2383H37.495L34.8711 3.82422L34.9857 3.77344C35.3523 3.61719 35.7266 3.53906 36.0971 3.53906C37.3346 3.53906 38.4346 4.34375 38.8356 5.54297L42.8651 17.6602H39.1908H39.187Z" fill="#999999"/>
<path d="M38.7058 5.58594C38.3276 4.44531 37.2773 3.67578 36.0971 3.67578C35.7228 3.67578 35.3676 3.76172 35.0391 3.90234L36.0971 7.29688L37.6822 12.3789H35.6579L34.7336 15.3438H38.6103L39.2863 17.5195H42.6703L38.7058 5.58984V5.58594Z" fill="#999999"/>
<path d="M29.333 17.6602L33.3624 5.54297C33.4923 5.14844 33.71 4.78906 34.0003 4.47656L34.1607 4.30469L35.6694 9.13672L33.6871 15.4844L33.0111 17.6602H29.3368H29.333Z" fill="#999999"/>
<path d="M34.0996 4.57422C33.836 4.85937 33.6222 5.19922 33.4923 5.58984L29.5239 17.5195H32.9079L33.584 15.3437L34.5083 12.3789L35.5204 9.13672L34.0958 4.57422H34.0996Z" fill="#999999"/>
</g>
<defs>
<clipPath id="clip0_775_16117">
<rect width="140" height="21" fill="white"/>
</clipPath>
</defs>
</svg>
