<svg width="150" height="26" viewBox="0 0 150 26" fill="none" xmlns="http://www.w3.org/2000/svg">
<path fill-rule="evenodd" clip-rule="evenodd" d="M30.2852 12.9161L26.2378 12.9383C26.2362 11.2252 25.8922 9.52944 25.2257 7.94923C24.5593 6.36902 23.5836 4.93577 22.3553 3.73249C21.127 2.52921 19.6704 1.57983 18.0699 0.939302C16.4693 0.298777 14.7567 -0.0201548 13.0312 0.000986249C9.55717 0.0233319 6.23398 1.413 3.79093 3.865C1.34788 6.317 -0.0154465 9.63103 0.000132057 13.0798C0.00652695 14.7863 0.352148 16.4749 1.0172 18.0485C1.68225 19.6222 2.65365 21.0501 3.87569 22.2504C5.09774 23.4506 6.54641 24.3997 8.13865 25.043C9.73089 25.6864 11.4354 26.0114 13.1544 25.9995C15.0754 26.0156 16.976 25.6083 18.7192 24.8069C20.4624 24.0055 22.0048 22.8301 23.2349 21.3653L30.2852 12.9161ZM12.1166 13.5456L7.36598 13.5716L6.9639 15.234L11.7238 15.2084L10.9809 18.3523L9.81236 18.3588L9.42953 20.0311L14.1255 20.0055L14.4779 18.3332L13.0302 18.3412L13.7696 15.1977L14.8095 15.1923C15.8952 15.2188 16.9788 15.0831 18.0238 14.7897C18.8303 14.5269 19.5172 13.9894 19.963 13.2723C20.4412 12.5285 20.6885 11.6617 20.6743 10.7795C20.6773 10.1834 20.535 9.5955 20.2595 9.06586C20.0033 8.56756 19.6187 8.14544 19.145 7.84239C18.7289 7.56796 18.2601 7.38219 17.7681 7.2968C17.133 7.21842 16.493 7.1866 15.8532 7.2016L12.3774 7.22072L11.9945 8.89342L13.2162 8.88655L12.1166 13.5456ZM15.0243 13.53L15.024 13.53L14.1621 13.5345L15.2666 8.87698L15.9252 8.87354C16.4391 8.8556 16.9534 8.89407 17.4588 8.98824C17.7961 9.07686 18.0921 9.27886 18.2961 9.55983C18.5447 9.90454 18.6709 10.3214 18.6551 10.7451C18.6776 11.343 18.5144 11.9334 18.1875 12.4361C17.9241 12.8536 17.5213 13.1661 17.0494 13.3189C16.3867 13.4777 15.7058 13.5487 15.0243 13.53ZM4.91298 10.3898L11.8358 10.3516L11.4322 12.0262L4.50782 12.0644L4.91298 10.3898Z" fill="#999999"/>
<path d="M51.2904 10.9917C51.2932 11.8282 51.1282 12.6569 50.8051 13.4295C50.482 14.2021 50.0073 14.9032 49.4086 15.4918C48.8099 16.0805 48.0992 16.5449 47.3178 16.8582C46.5365 17.1715 45.7001 17.3272 44.8576 17.3164L42.0884 17.3312L42.1199 23.0966L37.8965 23.1199L37.7953 4.77588L44.791 4.73783C45.6331 4.71817 46.4708 4.86503 47.2553 5.16988C48.0397 5.47474 48.7552 5.93149 49.36 6.51352C49.9649 7.09554 50.4471 7.79123 50.7785 8.56005C51.1099 9.32887 51.2839 10.1555 51.2904 10.9917ZM47.067 11.0144C47.0812 10.7115 47.0334 10.4088 46.9264 10.1247C46.8194 9.84066 46.6555 9.5811 46.4445 9.36176C46.2335 9.14242 45.9799 8.96786 45.6989 8.84867C45.418 8.72947 45.1157 8.66811 44.8102 8.6683L42.0379 8.68363L42.064 13.4007L44.8357 13.3854C45.1413 13.3823 45.443 13.3176 45.7226 13.1953C46.0023 13.0731 46.254 12.8957 46.4626 12.6741C46.6712 12.4524 46.8323 12.191 46.9362 11.9058C47.0401 11.6205 47.0846 11.3173 47.067 11.0144Z" fill="#999999"/>
<path d="M66.2735 9.86135L66.3454 22.9644L62.3861 22.986L62.3792 21.7543C61.8869 22.2963 61.2794 22.7228 60.6006 23.0029C59.9218 23.2831 59.1887 23.4098 58.4545 23.374C54.9963 23.3931 52.1287 20.3946 52.1074 16.49C52.0861 12.5855 54.9202 9.55632 58.3784 9.53729C59.1119 9.49387 59.846 9.61289 60.5275 9.88571C61.2091 10.1585 61.821 10.5783 62.319 11.1148L62.3121 9.88303L66.2735 9.86135ZM62.3499 16.4345C62.331 15.8213 62.1304 15.2272 61.7731 14.7266C61.4158 14.226 60.9177 13.8411 60.3412 13.6201C59.7646 13.3991 59.1352 13.3518 58.5318 13.4842C57.9283 13.6165 57.3776 13.9226 56.9484 14.3641C56.5193 14.8056 56.2309 15.363 56.1193 15.9665C56.0077 16.5699 56.0778 17.1926 56.3209 17.7567C56.5641 18.3207 56.9693 18.8011 57.4861 19.1376C58.0028 19.4742 58.6081 19.6519 59.2261 19.6487C59.6506 19.6651 60.0738 19.5923 60.4679 19.4351C60.8621 19.2778 61.2183 19.0397 61.5132 18.7362C61.8082 18.4327 62.0352 18.0708 62.1794 17.6741C62.3235 17.2775 62.3817 16.855 62.3499 16.4345Z" fill="#999999"/>
<path d="M77.0965 9.54175L77.121 13.9966C75.483 13.7434 73.1633 14.4116 73.1804 17.0057L73.2128 22.9265L69.253 22.9477L69.1811 9.84466L73.1409 9.82299L73.1537 12.1554C73.6692 10.3987 75.4335 9.55074 77.0965 9.54175Z" fill="#999999"/>
<path d="M85.154 13.5323L85.1795 18.1712C85.1854 19.2977 86.1631 19.3976 87.905 19.2813L87.9241 22.8449C82.7528 23.3974 81.24 21.8595 81.2197 18.1929L81.1941 13.5545L79.0822 13.5661L79.0614 9.79216L81.1734 9.78104L81.1595 7.29113L85.113 6.09058L85.1332 9.75937L87.8522 9.74456L87.873 13.518L85.154 13.5323Z" fill="#999999"/>
<path d="M101.032 18.8433C101.049 21.8566 98.4161 23.156 95.5655 23.1713C92.9252 23.1856 90.9134 22.2007 89.8723 20.0835L93.2937 18.1275C93.435 18.6008 93.7359 19.0114 94.1459 19.2905C94.5559 19.5697 95.0502 19.7003 95.5458 19.6606C96.4963 19.6553 96.9697 19.3645 96.9671 18.8406C96.9591 17.399 90.4703 18.1947 90.4442 13.6599C90.4288 10.8053 92.8491 9.34936 95.5948 9.33456C96.6272 9.2963 97.651 9.53367 98.5595 10.0219C99.4681 10.5102 100.228 11.2314 100.76 12.1105L97.3909 13.9369C97.2408 13.5945 96.9924 13.3034 96.6768 13.1001C96.3612 12.8968 95.9923 12.7901 95.6161 12.7935C94.9291 12.7972 94.5084 13.0615 94.5111 13.5336C94.5169 15.0265 101.006 13.9956 101.032 18.8433Z" fill="#999999"/>
<path d="M121.825 9.55957L117.671 22.6853L113.976 22.7054L111.825 15.7199L109.752 22.7286L106.056 22.7487L101.76 9.66847L105.984 9.64574L107.926 16.6598L109.947 9.62512L113.642 9.60503L115.74 16.617L117.604 9.586L121.825 9.55957Z" fill="#999999"/>
<path d="M122.996 6.04217C122.993 5.57563 123.13 5.11879 123.389 4.72943C123.648 4.34007 124.017 4.03568 124.45 3.85475C124.883 3.67382 125.361 3.6245 125.822 3.71299C126.284 3.80148 126.708 4.02384 127.043 4.35192C127.377 4.68 127.605 5.09909 127.7 5.55617C127.794 6.01325 127.749 6.48779 127.572 6.91979C127.394 7.35179 127.092 7.72183 126.702 7.98313C126.313 8.24443 125.854 8.38524 125.384 8.38776C124.756 8.38506 124.154 8.13789 123.707 7.69932C123.261 7.26074 123.005 6.66577 122.996 6.04217ZM123.411 9.55132L127.371 9.53017L127.443 22.6332L123.483 22.6548L123.411 9.55132Z" fill="#999999"/>
<path d="M142.971 14.5038L143.015 22.5492L139.055 22.5709L139.014 15.1017C139.005 13.4772 137.971 12.7228 136.704 12.7297C135.252 12.7376 134.254 13.5813 134.264 15.4421L134.303 22.5963L130.344 22.618L130.272 9.51497L134.231 9.49329L134.238 10.725C134.946 9.75181 136.261 9.11531 138.004 9.10579C140.672 9.09152 142.951 10.9661 142.971 14.5038Z" fill="#999999"/>
<path d="M145.248 5.9201C145.245 5.45354 145.382 4.99667 145.641 4.6073C145.9 4.21793 146.269 3.91355 146.703 3.73263C147.136 3.55172 147.613 3.50242 148.075 3.59096C148.536 3.67949 148.961 3.90189 149.295 4.23003C149.629 4.55817 149.858 4.97731 149.952 5.43442C150.046 5.89154 150.001 6.3661 149.824 6.79809C149.646 7.23008 149.344 7.60008 148.954 7.86132C148.565 8.12256 148.106 8.26328 147.636 8.26569C147.008 8.26286 146.406 8.01563 145.959 7.57707C145.513 7.13851 145.257 6.54361 145.248 5.9201ZM145.663 9.42977L149.622 9.4081L149.695 22.5111L145.735 22.5328L145.663 9.42977Z" fill="#999999"/>
</svg>
