<svg width="24" height="25" viewBox="0 0 24 25" fill="none" xmlns="http://www.w3.org/2000/svg">
<path d="M11.6325 13.2126L11.2827 13.6181C10.7059 14.2865 10.7767 15.2999 11.4409 15.8816L17.3266 21.0359C17.9908 21.6176 18.9968 21.5473 19.5736 20.8788L19.9234 20.4734C20.5002 19.805 20.4294 18.7916 19.7652 18.2099L13.8795 13.0555C13.2153 12.4739 12.2093 12.5442 11.6325 13.2126Z" fill="#CCCCCC"/>
<path d="M11.4523 13.0547L11.1024 13.4602C10.4391 14.2289 10.5206 15.3943 11.2844 16.0633L17.1701 21.2177C17.934 21.8866 19.0909 21.8057 19.7542 21.037L20.1041 20.6316C20.7674 19.8629 20.686 18.6975 19.9221 18.0285L14.0364 12.8741C13.2726 12.2052 12.1156 12.286 11.4523 13.0547Z" stroke="#F5F5F5" stroke-width="0.6" stroke-miterlimit="10"/>
<path d="M11.1392 7.51677L5.61475 13.9189L10.4003 18.11L15.9247 11.7079L11.1392 7.51677Z" fill="#CCCCCC"/>
<path d="M11.1151 7.17703L5.27734 13.9424L10.4237 18.4495L16.2615 11.6842L11.1151 7.17703Z" stroke="#F5F5F5" stroke-width="0.6" stroke-miterlimit="10"/>
<path d="M13.4114 5.36567C12.7645 4.79912 11.7846 4.86763 11.2228 5.51868C10.661 6.16973 10.73 7.15679 11.3769 7.72333L15.6914 11.5017C16.3383 12.0683 17.3182 11.9998 17.88 11.3487C18.4418 10.6977 18.3728 9.7106 17.7259 9.14406L13.4114 5.36567Z" fill="#CCCCCC"/>
<path d="M13.5678 5.18397C12.8212 4.53016 11.6904 4.60921 11.0421 5.36054C10.3937 6.11187 10.4734 7.25097 11.2199 7.90478L15.5345 11.6832C16.281 12.337 17.4118 12.258 18.0602 11.5067C18.7085 10.7553 18.6289 9.61624 17.8823 8.96243L13.5678 5.18397Z" stroke="#F5F5F5" stroke-width="0.6" stroke-miterlimit="10"/>
<path d="M5.84841 14.1301C5.20149 13.5635 4.22162 13.632 3.65981 14.2831C3.09801 14.9341 3.16702 15.9212 3.81394 16.4877L8.1284 20.2661C8.77532 20.8327 9.75519 20.7642 10.317 20.1131C10.8788 19.4621 10.8098 18.475 10.1629 17.9085L5.84841 14.1301Z" fill="#CCCCCC"/>
<path d="M6.00479 13.9484C5.25822 13.2946 4.12742 13.3736 3.47909 14.1249C2.83075 14.8763 2.91039 16.0154 3.65696 16.6692L7.97148 20.4476C8.71805 21.1015 9.84884 21.0224 10.4972 20.2711C11.1455 19.5197 11.0659 18.3806 10.3193 17.7268L6.00479 13.9484Z" stroke="#F5F5F5" stroke-width="0.6" stroke-miterlimit="10"/>
</svg>
