<svg width="24" height="24" viewBox="0 0 24 24" fill="none" xmlns="http://www.w3.org/2000/svg">
<path fill-rule="evenodd" clip-rule="evenodd" d="M12.0001 4.13208C7.10247 4.13208 3.13217 8.10238 3.13217 13C3.13217 17.8976 7.10247 21.8679 12.0001 21.8679C16.8977 21.8679 20.868 17.8976 20.868 13C20.868 8.10238 16.8977 4.13208 12.0001 4.13208ZM2.00009 13C2.00009 7.47715 6.47724 3 12.0001 3C17.5229 3 22.0001 7.47715 22.0001 13C22.0001 18.5228 17.5229 23 12.0001 23C6.47724 23 2.00009 18.5228 2.00009 13Z" fill="#4B4545"/>
<path fill-rule="evenodd" clip-rule="evenodd" d="M8.42013 7.34268C9.35266 5.5997 10.7019 4.10882 12.3502 3L13.0001 3.9457C11.5076 4.94966 10.286 6.29955 9.44165 7.8777C8.59732 9.45586 8.15591 11.2144 8.15591 13C8.15591 14.7856 8.59732 16.5442 9.44165 18.1223C10.286 19.7005 11.5076 21.0503 13.0001 22.0543L12.3502 23C10.7019 21.8912 9.35266 20.4003 8.42013 18.6573C7.48761 16.9143 7.00009 14.9721 7.00009 13C7.00009 11.0279 7.48761 9.08567 8.42013 7.34268Z" fill="#4B4545"/>
<path fill-rule="evenodd" clip-rule="evenodd" d="M14.5585 7.8777C13.7142 6.29955 12.4926 4.94966 11.0001 3.9457L11.6499 3C13.2983 4.10882 14.6475 5.5997 15.5801 7.34268C16.5126 9.08567 17.0001 11.0279 17.0001 13C17.0001 14.9721 16.5126 16.9143 15.5801 18.6573C14.6475 20.4003 13.2983 21.8912 11.6499 23L11.0001 22.0543C12.4926 21.0503 13.7142 19.7005 14.5585 18.1223C15.4029 16.5442 15.8443 14.7856 15.8443 13C15.8443 11.2144 15.4029 9.45586 14.5585 7.8777Z" fill="#4B4545"/>
<path fill-rule="evenodd" clip-rule="evenodd" d="M21.0001 10H3.00009V9H21.0001V10Z" fill="#4B4545"/>
<path fill-rule="evenodd" clip-rule="evenodd" d="M21.0001 17H3.00009V16H21.0001V17Z" fill="#4B4545"/>
</svg>
