<svg width="24" height="24" viewBox="0 0 24 24" fill="none" xmlns="http://www.w3.org/2000/svg">
<mask id="mask0_936_1515" style="mask-type:alpha" maskUnits="userSpaceOnUse" x="1" y="2" width="22" height="20">
<path d="M21.8 12C21.8 17.1045 17.445 21.3 12 21.3C6.55503 21.3 2.2 17.1045 2.2 12C2.2 6.89554 6.55503 2.7 12 2.7C17.445 2.7 21.8 6.89554 21.8 12Z" fill="white" stroke="#111111" stroke-width="1.4"/>
</mask>
<g mask="url(#mask0_936_1515)">
<path d="M18.6504 20C18.6504 22.801 15.8126 25.3 12.0004 25.3C8.1882 25.3 5.35039 22.801 5.35039 20C5.35039 17.199 8.1882 14.7 12.0004 14.7C15.8126 14.7 18.6504 17.199 18.6504 20Z" fill="white" stroke="#4B4545" stroke-width="1.4"/>
</g>
<circle cx="12" cy="12.5" r="9.8" stroke="#4B4545" stroke-width="1.4"/>
<circle cx="12" cy="9.5" r="2.8" fill="white" stroke="#4B4545" stroke-width="1.4"/>
</svg>
