<svg width="40" height="40" viewBox="0 0 40 40" fill="none" xmlns="http://www.w3.org/2000/svg">
<path d="M25.625 20C25.625 21.3008 25.5547 22.5547 25.4316 23.75H14.5684C14.4395 22.5547 14.375 21.3008 14.375 20C14.375 18.6992 14.4453 17.4453 14.5684 16.25H25.4316C25.5605 17.4453 25.625 18.6992 25.625 20ZM27.3125 16.25H34.5254C34.8359 17.4512 35 18.7051 35 20C35 21.2949 34.8359 22.5488 34.5254 23.75H27.3125C27.4355 22.543 27.5 21.2891 27.5 20C27.5 18.7109 27.4355 17.457 27.3125 16.25ZM33.9102 14.375H27.0723C26.4863 10.6309 25.3262 7.49609 23.832 5.49219C28.4199 6.70508 32.1523 10.0332 33.9043 14.375H33.9102ZM25.1738 14.375H14.8262C15.1836 12.2422 15.7344 10.3555 16.4082 8.82617C17.0234 7.44336 17.709 6.44141 18.3711 5.80859C19.0273 5.1875 19.5723 5 20 5C20.4277 5 20.9727 5.1875 21.6289 5.80859C22.291 6.44141 22.9766 7.44336 23.5918 8.82617C24.2715 10.3496 24.8223 12.2363 25.1738 14.375ZM12.9277 14.375H6.08984C7.84766 10.0332 11.5742 6.70508 16.168 5.49219C14.6738 7.49609 13.5137 10.6309 12.9277 14.375ZM5.47461 16.25H12.6875C12.5645 17.457 12.5 18.7109 12.5 20C12.5 21.2891 12.5645 22.543 12.6875 23.75H5.47461C5.16406 22.5488 5 21.2949 5 20C5 18.7051 5.16406 17.4512 5.47461 16.25ZM16.4082 31.168C15.7285 29.6445 15.1836 27.7578 14.8262 25.625H25.1738C24.8164 27.7578 24.2656 29.6445 23.5918 31.168C22.9766 32.5508 22.291 33.5527 21.6289 34.1855C20.9727 34.8125 20.4277 35 20 35C19.5723 35 19.0273 34.8125 18.3711 34.1914C17.709 33.5586 17.0234 32.5566 16.4082 31.1738V31.168ZM12.9277 25.625C13.5137 29.3691 14.6738 32.5039 16.168 34.5078C11.5742 33.2949 7.84766 29.9668 6.08984 25.625H12.9277ZM33.9102 25.625C32.1523 29.9668 28.4258 33.2949 23.8379 34.5078C25.332 32.5039 26.4863 29.3691 27.0781 25.625H33.9102Z" fill="#4B4545"/>
<mask id="mask0_11_428" style="mask-type:alpha" maskUnits="userSpaceOnUse" x="5" y="5" width="30" height="30">
<path d="M25.625 20C25.625 21.3008 25.5547 22.5547 25.4316 23.75H14.5684C14.4395 22.5547 14.375 21.3008 14.375 20C14.375 18.6992 14.4453 17.4453 14.5684 16.25H25.4316C25.5605 17.4453 25.625 18.6992 25.625 20ZM27.3125 16.25H34.5254C34.8359 17.4512 35 18.7051 35 20C35 21.2949 34.8359 22.5488 34.5254 23.75H27.3125C27.4355 22.543 27.5 21.2891 27.5 20C27.5 18.7109 27.4355 17.457 27.3125 16.25ZM33.9102 14.375H27.0723C26.4863 10.6309 25.3262 7.49609 23.832 5.49219C28.4199 6.70508 32.1523 10.0332 33.9043 14.375H33.9102ZM25.1738 14.375H14.8262C15.1836 12.2422 15.7344 10.3555 16.4082 8.82617C17.0234 7.44336 17.709 6.44141 18.3711 5.80859C19.0273 5.1875 19.5723 5 20 5C20.4277 5 20.9727 5.1875 21.6289 5.80859C22.291 6.44141 22.9766 7.44336 23.5918 8.82617C24.2715 10.3496 24.8223 12.2363 25.1738 14.375ZM12.9277 14.375H6.08984C7.84766 10.0332 11.5742 6.70508 16.168 5.49219C14.6738 7.49609 13.5137 10.6309 12.9277 14.375ZM5.47461 16.25H12.6875C12.5645 17.457 12.5 18.7109 12.5 20C12.5 21.2891 12.5645 22.543 12.6875 23.75H5.47461C5.16406 22.5488 5 21.2949 5 20C5 18.7051 5.16406 17.4512 5.47461 16.25ZM16.4082 31.168C15.7285 29.6445 15.1836 27.7578 14.8262 25.625H25.1738C24.8164 27.7578 24.2656 29.6445 23.5918 31.168C22.9766 32.5508 22.291 33.5527 21.6289 34.1855C20.9727 34.8125 20.4277 35 20 35C19.5723 35 19.0273 34.8125 18.3711 34.1914C17.709 33.5586 17.0234 32.5566 16.4082 31.1738V31.168ZM12.9277 25.625C13.5137 29.3691 14.6738 32.5039 16.168 34.5078C11.5742 33.2949 7.84766 29.9668 6.08984 25.625H12.9277ZM33.9102 25.625C32.1523 29.9668 28.4258 33.2949 23.8379 34.5078C25.332 32.5039 26.4863 29.3691 27.0781 25.625H33.9102Z" fill="black"/>
</mask>
<g mask="url(#mask0_11_428)">
<rect x="13.3334" y="15.8333" width="13.3333" height="8.33333" fill="#B0191E"/>
</g>
</svg>
