<svg width="40" height="40" viewBox="0 0 40 40" fill="none" xmlns="http://www.w3.org/2000/svg">
<path d="M37.56 24.125C35.86 23.3542 34 22.9167 32 22.9167C30.66 22.9167 29.38 23.125 28.16 23.5C29.32 24.6458 30 26.25 30 27.9792V29.1667H40V27.9792C40 26.2917 39 24.7917 37.56 24.125ZM11.84 23.5C10.62 23.125 9.34 22.9167 8 22.9167C6 22.9167 4.14 23.3542 2.44 24.125C1 24.7917 0 26.2917 0 27.9792V29.1667H10V27.9792C10 26.25 10.68 24.6458 11.84 23.5ZM28 29.1667H12V27.9792C12 26.2917 13 24.7917 14.44 24.125C16.14 23.3542 18 22.9167 20 22.9167C22 22.9167 23.86 23.3542 25.56 24.125C27 24.7917 28 26.2917 28 27.9792" fill="#4B4545"/>
<path d="M25.4167 16.25C25.4167 19.2416 22.9915 21.6667 20 21.6667C17.0085 21.6667 14.5833 19.2416 14.5833 16.25C14.5833 13.2585 17.0085 10.8333 20 10.8333C22.9915 10.8333 25.4167 13.2585 25.4167 16.25Z" fill="#B0191E"/>
<path d="M12.5 17.0833C12.5 19.6146 10.448 21.6667 7.91667 21.6667C5.38536 21.6667 3.33333 19.6146 3.33333 17.0833C3.33333 14.552 5.38536 12.5 7.91667 12.5C10.448 12.5 12.5 14.552 12.5 17.0833Z" fill="#4B4545"/>
<path d="M36.6667 17.0833C36.6667 19.6146 34.6146 21.6667 32.0833 21.6667C29.552 21.6667 27.5 19.6146 27.5 17.0833C27.5 14.552 29.552 12.5 32.0833 12.5C34.6146 12.5 36.6667 14.552 36.6667 17.0833Z" fill="#4B4545"/>
<path d="M11.9068 27.7257C12.2653 25.5748 13.8936 23.857 16.0221 23.384C18.6421 22.8018 21.3579 22.8018 23.9778 23.384C26.1064 23.857 27.7347 25.5748 28.0932 27.7257L28.3333 29.1667H11.6667L11.9068 27.7257Z" fill="#B0191E"/>
</svg>
