<svg width="40" height="40" viewBox="0 0 40 40" fill="none" xmlns="http://www.w3.org/2000/svg">
<path d="M24.9998 12.4675L9.55088 12.4675L1.6665 19.9675V26.4286C1.6665 27.0024 2.13166 27.4675 2.70546 27.4675H36.9803C37.2672 27.4675 37.4998 27.235 37.4998 26.9481L37.4998 21.6342C37.4998 20.8572 34.4597 18.3009 33.9034 18.3009H30.344L24.9998 12.4675ZM9.94031 14.9675H16.2498V18.3009H7.08317L9.94031 14.9675ZM18.7498 14.9675H24.2856L26.6665 18.3009H18.7498V14.9675Z" fill="#4B4545"/>
<path d="M1.6665 18.8203C1.6665 18.5334 1.89908 18.3009 2.18598 18.3009H33.9034C35.8332 18.3009 37.4998 19.1342 37.4998 21.6342L37.4998 26.9481C37.4998 27.235 37.2672 27.4675 36.9803 27.4675H2.70546C2.13166 27.4675 1.6665 27.0024 1.6665 26.4286V19.9675V18.8203Z" fill="#4B4545"/>
<path d="M8.24943 13.093C8.56572 12.6977 9.04457 12.4675 9.55088 12.4675L9.94031 14.9675L7.08317 18.3009L1.6665 19.9675L8.24943 13.093Z" fill="#4B4545"/>
<path d="M26.7498 13.1342C26.4351 12.7145 25.9411 12.4675 25.4165 12.4675H22.4998L26.6665 18.3009L23.7498 22.4675H32.0832V20.8009L26.7498 13.1342Z" fill="#4B4545"/>
<mask id="mask0_130_52" style="mask-type:alpha" maskUnits="userSpaceOnUse" x="1" y="12" width="37" height="20">
<path d="M24.9998 12.4675L9.55088 12.4675L1.6665 19.9675V26.4286C1.6665 27.0024 2.13166 27.4675 2.70546 27.4675H36.9803C37.2672 27.4675 37.4998 27.235 37.4998 26.9481L37.4998 21.6342C37.4998 20.8572 34.4597 18.3009 33.9034 18.3009H30.344L24.9998 12.4675ZM9.94031 14.9675H16.2498V18.3009H7.08317L9.94031 14.9675ZM18.7498 14.9675H24.2856L26.6665 18.3009H18.7498V14.9675Z" fill="#4B4545"/>
<path d="M1.6665 18.8203C1.6665 18.5334 1.89908 18.3009 2.18598 18.3009H33.9034C35.8332 18.3009 37.4998 19.1342 37.4998 21.6342L37.4998 26.9481C37.4998 27.235 37.2672 27.4675 36.9803 27.4675H2.70546C2.13166 27.4675 1.6665 27.0024 1.6665 26.4286V19.9675V18.8203Z" fill="#4B4545"/>
<path d="M8.24943 13.093C8.56572 12.6977 9.04457 12.4675 9.55088 12.4675L9.94031 14.9675L7.08317 18.3009L1.6665 19.9675L8.24943 13.093Z" fill="#4B4545"/>
<path d="M26.7498 13.1342C26.4351 12.7145 25.9411 12.4675 25.4165 12.4675H22.4998L26.6665 18.3009L23.7498 22.4675H32.0832V20.8009L26.7498 13.1342Z" fill="#4B4545"/>
<path d="M32 27.4675C32 29.6767 30.2091 31.4675 28 31.4675C25.7908 31.4675 24 29.6767 24 27.4675C24 25.2584 25.7908 23.4675 28 23.4675C30.2091 23.4675 32 25.2584 32 27.4675Z" fill="#B0191E"/>
<path d="M14.0004 27.4675C14.0004 29.6766 12.2095 31.4675 10.0004 31.4675C7.79123 31.4675 6.00037 29.6766 6.00037 27.4675C6.00037 25.2584 7.79123 23.4675 10.0004 23.4675C12.2095 23.4675 14.0004 25.2584 14.0004 27.4675Z" fill="#B0191E"/>
<path d="M11.9996 27.4676C11.9996 28.5721 11.1042 29.4676 9.99965 29.4676C8.89508 29.4676 7.99965 28.5721 7.99965 27.4676C7.99965 26.363 8.89508 25.4676 9.99965 25.4676C11.1042 25.4676 11.9996 26.363 11.9996 27.4676Z" fill="#0E0C0C"/>
<path d="M30.0004 27.4676C30.0004 28.5721 29.1049 29.4676 28.0004 29.4676C26.8958 29.4676 26.0004 28.5721 26.0004 27.4676C26.0004 26.363 26.8958 25.4675 28.0004 25.4675C29.1049 25.4675 30.0004 26.363 30.0004 27.4676Z" fill="#0E0C0C"/>
</mask>
<g mask="url(#mask0_130_52)">
<rect x="1.55847" y="9.35065" width="17.1429" height="21.8182" fill="#B0191E"/>
</g>
<path d="M32 27.4675C32 29.6767 30.2091 31.4675 28 31.4675C25.7908 31.4675 24 29.6767 24 27.4675C24 25.2584 25.7908 23.4675 28 23.4675C30.2091 23.4675 32 25.2584 32 27.4675Z" fill="#B0191E"/>
<path d="M14.0004 27.4675C14.0004 29.6766 12.2095 31.4675 10.0004 31.4675C7.79123 31.4675 6.00037 29.6766 6.00037 27.4675C6.00037 25.2584 7.79123 23.4675 10.0004 23.4675C12.2095 23.4675 14.0004 25.2584 14.0004 27.4675Z" fill="#B0191E"/>
<path d="M11.9996 27.4676C11.9996 28.5721 11.1042 29.4676 9.99965 29.4676C8.89508 29.4676 7.99965 28.5721 7.99965 27.4676C7.99965 26.363 8.89508 25.4676 9.99965 25.4676C11.1042 25.4676 11.9996 26.363 11.9996 27.4676Z" fill="#0E0C0C"/>
<path d="M30.0004 27.4676C30.0004 28.5721 29.1049 29.4676 28.0004 29.4676C26.8958 29.4676 26.0004 28.5721 26.0004 27.4676C26.0004 26.363 26.8958 25.4675 28.0004 25.4675C29.1049 25.4675 30.0004 26.363 30.0004 27.4676Z" fill="#0E0C0C"/>
</svg>
