<?xml version="1.0" encoding="utf-8"?>
<!-- Generator: Adobe Illustrator 25.3.1, SVG Export Plug-In . SVG Version: 6.00 Build 0)  -->
<svg version="1.0" id="Layer_1" xmlns="http://www.w3.org/2000/svg" xmlns:xlink="http://www.w3.org/1999/xlink" x="0px" y="0px"
	 viewBox="0 0 33 32" style="enable-background:new 0 0 33 32;" xml:space="preserve">
<style type="text/css">
	.st0{fill:#1D1D1B;}
	.st1{fill:none;stroke:#FFFFFF;stroke-width:2;stroke-linecap:round;}
	.st2{fill:#101010;}
	.st3{fill:#101010;stroke:#FFFFFF;stroke-width:1.5;stroke-miterlimit:10;}
	.st4{fill:none;}
</style>
<g id="그룹_4">
	<g id="그룹_3">
		<g id="그룹_2">
			<g id="사각형_1" transform="translate(1701 59)">
				<path class="st0" d="M-1695.6-56h15.9c2.1,0,3.7,1.7,3.7,3.7v19.6c0,2.1-1.7,3.7-3.7,3.7h-15.9c-2.1,0-3.7-1.7-3.7-3.7v-19.6
					C-1699.3-54.4-1697.6-56-1695.6-56z"/>
			</g>
			<line id="선_1" class="st1" x1="6.8" y1="9.6" x2="19.9" y2="9.6"/>
			<line id="선_2" class="st1" x1="6.8" y1="15.7" x2="19.9" y2="15.7"/>
			<g id="그룹_5765-2" transform="translate(1478.269 -603.713)">
				<path id="패스_1276-3" class="st2" d="M-1456.2,623.7c-1.2-0.1-2.3,0.4-3.1,1.3l-1.9,1.8c-0.3,0.3-0.7,0.5-1.1,0.5l-1.6,0.2
					c-1.7,0.2-3.6,0.5-3.6,2.7v1.6c0,1.1,0.6,1.6,1.8,1.6h1.7c-0.1-1,0.6-2,1.6-2.1c1-0.1,1.9,0.5,2.1,1.5v0c0,0.2,0,0.4,0,0.6h6.7
					c-0.2-1,0.5-2,1.5-2.2c1-0.2,2,0.5,2.2,1.5c0,0.1,0,0.2,0,0.2v0.1c0,0.1,0,0.3,0,0.4h2c0.9,0,1.2-0.4,1.2-1.2v-4.4
					c0-2.2-1.8-4.1-4.1-4.1L-1456.2,623.7z"/>
				<path id="패스_1276-4" class="st3" d="M-1456.2,623.7c-1.2-0.1-2.3,0.4-3.1,1.3l-1.9,1.8c-0.3,0.3-0.7,0.5-1.1,0.5l-1.6,0.2
					c-1.7,0.2-3.6,0.5-3.6,2.7v1.6c0,1.1,0.6,1.6,1.8,1.6h1.7c-0.1-1,0.6-2,1.6-2.1c1-0.1,1.9,0.5,2.1,1.5v0c0,0.2,0,0.4,0,0.6h6.7
					c-0.2-1,0.5-2,1.5-2.2c1-0.2,2,0.5,2.2,1.5c0,0.1,0,0.2,0,0.2v0.1c0,0.1,0,0.3,0,0.4h2c0.9,0,1.2-0.4,1.2-1.2v-4.4
					c0-2.2-1.8-4.1-4.1-4.1L-1456.2,623.7z"/>
				<circle id="타원_132-2" class="st2" cx="-1451.6" cy="633.1" r="1.7"/>
				<circle id="타원_132-2_1_" class="st2" cx="-1462.1" cy="633.1" r="1.7"/>
			</g>
			<rect id="사각형_3" y="0" class="st4" width="32" height="32"/>
		</g>
	</g>
</g>
</svg>
