<svg xmlns="http://www.w3.org/2000/svg" xmlns:xlink="http://www.w3.org/1999/xlink" width="32" height="32" viewBox="0 0 32 32"><defs><clipPath id="a"><rect width="32" height="32" transform="translate(241 193)" fill="none"/></clipPath></defs><g transform="translate(-241 -193)" clip-path="url(#a)"><path d="M223.38,102.17l-3.737.023-1.055-2.59a6.954,6.954,0,0,0-6.516-4.354l-7.926.048a6.957,6.957,0,0,0-6.463,4.434l-1.023,2.6-3.736.023a.748.748,0,0,0-.721.935l.384,1.5a.747.747,0,0,0,.73.563l1.252-.007a3.965,3.965,0,0,0-1.36,3l.019,3a3.962,3.962,0,0,0,1.014,2.611l.021,3.375a2,2,0,0,0,2.009,1.985l2-.012a2,2,0,0,0,1.985-2.009l-.012-2,15.977-.1.012,2a2,2,0,0,0,2.009,1.985l2-.012a2,2,0,0,0,1.985-2.009l-.02-3.375a3.957,3.957,0,0,0,.983-2.622l-.019-3a3.966,3.966,0,0,0-1.4-2.987l1.252-.008a.749.749,0,0,0,.723-.572l.366-1.5a.75.75,0,0,0-.733-.926Zm-21.979-.979a3,3,0,0,1,2.77-1.9l7.926-.049a3,3,0,0,1,2.793,1.866l1.263,3.1-15.976.1ZM198.222,111.3a1.991,1.991,0,1,1-.025-3.982,3.844,3.844,0,0,1,3.014,2.968c.007,1.194-1.791,1.007-2.99,1.014Zm19.971-.121c-1.2.007-3,.217-3-.977a3.841,3.841,0,0,1,2.977-3,1.991,1.991,0,1,1,.025,3.982Z" transform="translate(48.82 101.751)" fill="#111"/></g></svg>