<svg xmlns="http://www.w3.org/2000/svg" width="14" height="10" viewBox="0 0 14 10"><g transform="translate(-127 -245)"><path d="M98.257,86.6a1.772,1.772,0,0,0-1.238-1.263,41,41,0,0,0-5.47-.3,41,41,0,0,0-5.47.3A1.772,1.772,0,0,0,84.842,86.6a20.358,20.358,0,0,0,0,6.877A1.772,1.772,0,0,0,86.08,94.74a41,41,0,0,0,5.47.3,41,41,0,0,0,5.47-.3,1.772,1.772,0,0,0,1.238-1.263,20.358,20.358,0,0,0,0-6.877Z" transform="translate(42.45 159.961)" fill="#d40000"/><path d="M133.144,114.256l4.056-2.46-4.056-2.46Z" transform="translate(-0.77 138.204)" fill="#fff"/></g></svg>