<svg width="32" height="16" viewBox="0 0 32 16" fill="none" xmlns="http://www.w3.org/2000/svg">
<rect width="32" height="16" rx="4" fill="#DD1F26"/>
<path d="M10.1973 3.46875V12H8.72656L4.90039 5.88867V12H3.42969V3.46875H4.90039L8.73828 9.5918V3.46875H10.1973ZM17.5332 10.834V12H13.0039V10.834H17.5332ZM13.4199 3.46875V12H11.9492V3.46875H13.4199ZM16.9414 7.03125V8.17969H13.0039V7.03125H16.9414ZM17.5039 3.46875V4.64062H13.0039V3.46875H17.5039ZM20.873 10.084L22.5723 3.46875H23.4629L23.3633 5.17383L21.5469 12H20.6211L20.873 10.084ZM19.6016 3.46875L20.9785 10.0312L21.1016 12H20.1172L18.1426 3.46875H19.6016ZM25.3906 10.0137L26.75 3.46875H28.2148L26.2402 12H25.2559L25.3906 10.0137ZM23.8086 3.46875L25.4902 10.1016L25.7363 12H24.8105L23.0234 5.17383L22.9297 3.46875H23.8086Z" fill="white"/>
</svg>
