<svg width="35" height="35" fill="none" xmlns="http://www.w3.org/2000/svg"><path fill-rule="evenodd" clip-rule="evenodd" d="M27.937 14.441c.168 0 .329.074.437.2a.532.532 0 0 1 .115.452l-.318 1.48a.557.557 0 0 1-.551.433h-.677c.649.695.96 1.583.956 2.47a3.564 3.564 0 0 1-1.202 2.68v2.03c0 .449-.38.814-.845.814h-1.975c-.467 0-.845-.365-.845-.814v-.832H11.968v.832c0 .449-.379.814-.845.814H9.148c-.466 0-.845-.365-.845-.814v-2.071l-.013-.01a.189.189 0 0 1-.012-.01c-.763-.677-1.18-1.634-1.176-2.693a3.58 3.58 0 0 1 .913-2.395H7.38a.559.559 0 0 1-.552-.433l-.317-1.48a.525.525 0 0 1 .115-.453.57.57 0 0 1 .436-.2h2.141c.532-1.34 1.217-2.657 2-3.154 2.707-1.716 9.886-1.716 12.593 0 .782.496 1.47 1.812 1.999 3.154h2.141zm-5.072-1.795c-2.156-1.368-8.577-1.368-10.734 0-.42.266-.959 1.336-1.451 2.646h13.638c-.494-1.31-1.033-2.381-1.453-2.646zm-13.26 6.96c0-.885.744-1.601 1.662-1.601.918 0 1.662.716 1.662 1.6 0 .885-.744 1.602-1.662 1.602-.918 0-1.663-.717-1.663-1.601zm12.488 0c0 .884.744 1.601 1.662 1.601.918 0 1.662-.717 1.662-1.601 0-.885-.743-1.601-1.662-1.601-.918 0-1.662.716-1.662 1.6z" fill="#8D94AD"/></svg>