<svg width="72" height="71" viewBox="0 0 72 71" fill="none" xmlns="http://www.w3.org/2000/svg">
<g filter="url(#filter0_d_391_2711)">
<path d="M0.17157 69.799V35.8284L36.1152 1.25732H69.0564L0.17157 69.799Z" fill="#D10023"/>
<path d="M4.37045 44.5011L10.3176 50.4932L9.08709 51.7144L3.13993 45.7224L4.37045 44.5011Z" fill="white"/>
<path d="M10.2351 38.6804L16.1823 44.6725L14.9477 45.8978L8.55356 44.2706L12.5401 48.2873L11.3055 49.5127L5.35832 43.5206L6.59296 42.2952L12.9953 43.9224L9.00461 39.9017L10.2351 38.6804Z" fill="white"/>
<path d="M18.6511 39.1096C18.5449 39.0026 18.4332 38.9229 18.3158 38.8705C18.1985 38.8127 18.0619 38.7903 17.9061 38.8034C17.7475 38.8137 17.556 38.8595 17.3315 38.9406C17.1071 39.0218 16.8347 39.1451 16.5142 39.3106C16.1555 39.4924 15.7995 39.6496 15.4464 39.7822C15.0961 39.9121 14.7555 39.9969 14.4246 40.0367C14.0937 40.071 13.7781 40.0438 13.4778 39.9552C13.1802 39.8639 12.9034 39.6893 12.6474 39.4314C12.3996 39.1817 12.2298 38.9009 12.1381 38.589C12.0436 38.2743 12.023 37.9462 12.0762 37.6047C12.1267 37.2605 12.2469 36.9152 12.4368 36.5687C12.6294 36.2196 12.8876 35.8844 13.2114 35.563C13.6531 35.1246 14.1176 34.8216 14.6047 34.654C15.0919 34.4863 15.5635 34.4512 16.0197 34.5486C16.4785 34.6433 16.8849 34.8689 17.2389 35.2256L16.0125 36.4428C15.8382 36.2672 15.6487 36.1503 15.4439 36.0922C15.2392 36.0285 15.0246 36.0318 14.8002 36.102C14.5785 36.1695 14.3566 36.3136 14.1343 36.5341C13.9203 36.7465 13.7747 36.9565 13.6974 37.1639C13.6173 37.3686 13.5961 37.5612 13.6337 37.7418C13.6686 37.9196 13.7527 38.0757 13.8861 38.2101C13.9869 38.3116 14.1028 38.379 14.2339 38.4123C14.3677 38.4429 14.5208 38.4435 14.6931 38.4141C14.8654 38.3846 15.0569 38.328 15.2677 38.244C15.4785 38.1601 15.7113 38.0516 15.966 37.9187C16.3905 37.6934 16.7875 37.5199 17.1569 37.3983C17.5292 37.274 17.8752 37.2056 18.195 37.1931C18.5149 37.1807 18.814 37.2296 19.0924 37.34C19.3708 37.4504 19.6325 37.629 19.8776 37.876C20.1363 38.1366 20.317 38.4202 20.4197 38.7267C20.5224 39.0333 20.5486 39.3532 20.4981 39.6864C20.4476 40.0197 20.3261 40.3555 20.1335 40.6937C19.9409 41.0319 19.68 41.3644 19.3507 41.6912C19.0544 41.9852 18.7241 42.2368 18.3598 42.4459C17.9927 42.6523 17.6123 42.793 17.2184 42.8681C16.8272 42.9404 16.4391 42.9225 16.0541 42.8145C15.6691 42.7064 15.3092 42.4837 14.9742 42.1462L16.213 40.9167C16.3982 41.1033 16.5835 41.2325 16.7691 41.3042C16.9547 41.376 17.1392 41.3999 17.3224 41.376C17.5083 41.3494 17.6917 41.2817 17.8726 41.1731C18.0561 41.0617 18.2357 40.9189 18.4113 40.7446C18.6253 40.5322 18.7709 40.3278 18.8482 40.1312C18.9282 39.932 18.948 39.7462 18.9077 39.5739C18.8701 39.3988 18.7846 39.244 18.6511 39.1096Z" fill="white"/>
<path d="M22.3265 34.3344L20.7997 35.8497L19.8439 34.8867L21.3707 33.3713C21.6067 33.1372 21.7606 32.9081 21.8325 32.6843C21.9017 32.4577 21.9012 32.2404 21.8309 32.0324C21.7606 31.8243 21.6383 31.6326 21.4641 31.457C21.2871 31.2786 21.088 31.1467 20.8669 31.0611C20.6458 30.9755 20.4149 30.9596 20.1742 31.0134C19.9335 31.0672 19.6951 31.2111 19.4592 31.4453L18.3603 32.5359L23.3476 37.5609L22.113 38.7862L16.1658 32.7941L18.4993 30.4782C18.9684 30.0125 19.4548 29.6987 19.9583 29.5366C20.4619 29.369 20.9499 29.3449 21.4223 29.4642C21.8948 29.5835 22.3202 29.8338 22.6987 30.2152C23.0827 30.602 23.3257 31.0253 23.4279 31.4848C23.53 31.9444 23.4886 32.4185 23.3036 32.9071C23.1214 33.393 22.7957 33.8687 22.3265 34.3344Z" fill="white"/>
<path d="M30.4418 28.6082L31.3976 29.5712L28.2081 32.7368L27.2523 31.7738L30.4418 28.6082ZM22.6643 26.3444L28.6114 32.3365L27.3768 33.5619L21.4296 27.5698L22.6643 26.3444ZM27.4569 26.4322L28.3882 27.3705L25.6144 30.1235L24.6831 29.1852L27.4569 26.4322ZM25.4463 23.5832L26.4062 24.5504L23.2208 27.7118L22.261 26.7447L25.4463 23.5832Z" fill="white"/>
<path d="M33.4498 23.5886L34.6803 22.3673C35.0559 22.7951 35.3002 23.2635 35.4131 23.7723C35.5287 24.2784 35.498 24.7935 35.3211 25.3177C35.147 25.8391 34.8143 26.3435 34.3232 26.8309C33.9391 27.2122 33.5294 27.4881 33.0942 27.6586C32.6562 27.8265 32.205 27.8931 31.7404 27.8585C31.2786 27.8213 30.8158 27.6815 30.3521 27.4392C29.8883 27.1969 29.4386 26.8563 29.0029 26.4173L28.5903 26.0017C28.1546 25.5627 27.8188 25.109 27.5827 24.6407C27.3467 24.167 27.2132 23.6977 27.1821 23.2329C27.1538 22.7654 27.2252 22.3133 27.3963 21.8766C27.5675 21.4399 27.8409 21.035 28.2168 20.6619C28.7162 20.1664 29.2272 19.8389 29.7499 19.6796C30.2753 19.5176 30.7906 19.5017 31.2958 19.6321C31.8037 19.7598 32.2784 20.0076 32.7198 20.3755L31.4852 21.6009C31.2318 21.373 30.9809 21.2163 30.7325 21.1306C30.4814 21.0422 30.2299 21.0385 29.9781 21.1196C29.7264 21.1952 29.4633 21.3691 29.189 21.6414C28.9832 21.8457 28.8416 22.0624 28.7642 22.2917C28.6868 22.5211 28.6736 22.7656 28.7245 23.0255C28.7755 23.2854 28.8934 23.5605 29.0781 23.8509C29.2629 24.1359 29.5133 24.4375 29.8291 24.7558L30.2499 25.1797C30.5576 25.4897 30.8518 25.7396 31.1327 25.9292C31.4108 26.1161 31.6782 26.2429 31.9348 26.3094C32.1915 26.3705 32.4376 26.366 32.6729 26.2958C32.9083 26.2202 33.1357 26.0734 33.3552 25.8556C33.6131 25.5996 33.7849 25.3474 33.8705 25.099C33.9562 24.8506 33.9626 24.6019 33.8897 24.3529C33.8196 24.1011 33.673 23.8464 33.4498 23.5886Z" fill="white"/>
<path d="M33.9039 15.1891L39.8511 21.1812L38.6205 22.4025L35.647 19.4064L32.6734 16.4104L33.9039 15.1891ZM35.7476 13.3592L36.7075 14.3263L31.8183 19.1788L30.8585 18.2117L35.7476 13.3592Z" fill="white"/>
<path d="M45.2949 13.8665L46.2507 14.8295L43.0613 17.995L42.1055 17.032L45.2949 13.8665ZM37.5174 11.6027L43.4646 17.5947L42.2299 18.8201L36.2828 12.828L37.5174 11.6027ZM42.3101 11.6904L43.2414 12.6287L40.4676 15.3817L39.5363 14.4434L42.3101 11.6904ZM40.2995 8.84148L41.2593 9.80861L38.074 12.9701L37.1141 12.0029L40.2995 8.84148Z" fill="white"/>
<path d="M48.642 12.4562L47.3374 13.751L46.3898 12.7798L47.6862 11.4932C48.0099 11.1718 48.2108 10.8282 48.2887 10.4622C48.3639 10.0935 48.3175 9.71201 48.1495 9.31777C47.9842 8.9208 47.7028 8.52204 47.3053 8.12147L47.0153 7.82927C46.7103 7.52198 46.4091 7.28441 46.1118 7.11656C45.8173 6.94598 45.5279 6.84375 45.2438 6.80988C44.9596 6.77601 44.6862 6.81052 44.4234 6.9134C44.1578 7.01353 43.9057 7.18206 43.667 7.41896L42.3254 8.75054L41.3655 7.78341L42.7072 6.45183C43.1077 6.05426 43.5421 5.75933 44.0102 5.56702C44.4784 5.36924 44.9598 5.27539 45.4545 5.28545C45.9492 5.29551 46.4367 5.41078 46.9169 5.63126C47.3972 5.84627 47.8497 6.16778 48.2745 6.59579L48.5564 6.87975C48.9784 7.30502 49.2965 7.75995 49.5106 8.24457C49.7275 8.72646 49.8391 9.21479 49.8454 9.70956C49.8518 10.1989 49.7543 10.6796 49.553 11.1517C49.3517 11.6183 49.048 12.0532 48.642 12.4562ZM42.0898 7.06452L48.037 13.0566L46.8024 14.282L40.8552 8.28989L42.0898 7.06452Z" fill="white"/>
</g>
<defs>
<filter id="filter0_d_391_2711" x="0" y="0" width="72" height="72" filterUnits="userSpaceOnUse" color-interpolation-filters="sRGB">
<feFlood flood-opacity="0" result="BackgroundImageFix"/>
<feColorMatrix in="SourceAlpha" type="matrix" values="0 0 0 0 0 0 0 0 0 0 0 0 0 0 0 0 0 0 127 0" result="hardAlpha"/>
<feOffset dx="1"/>
<feGaussianBlur stdDeviation="0.5"/>
<feComposite in2="hardAlpha" operator="out"/>
<feColorMatrix type="matrix" values="0 0 0 0 0 0 0 0 0 0 0 0 0 0 0 0 0 0 0.22 0"/>
<feBlend mode="normal" in2="BackgroundImageFix" result="effect1_dropShadow_391_2711"/>
<feBlend mode="normal" in="SourceGraphic" in2="effect1_dropShadow_391_2711" result="shape"/>
</filter>
</defs>
</svg>
